<svg xmlns="http://www.w3.org/2000/svg" width="185" height="65" viewBox="0 0 185 65" fill="none"><mask id="mask0_592_30171" style="mask-type:alpha" maskUnits="userSpaceOnUse" x="22" y="8" width="8" height="49"><path d="M22.3882 8.09375H29.8875V56.5621H22.3882V8.09375Z" fill="white"></path></mask><g mask="url(#mask0_592_30171)"><path fill-rule="evenodd" clip-rule="evenodd" d="M27.5719 48.6927C27.0057 47.9499 26.8099 46.9968 26.7961 46.0845C26.7823 45.03 27.0333 43.921 27.754 43.1116C28.5205 42.2099 29.5626 41.4096 29.7906 40.1826C29.9405 39.2325 29.9497 38.1961 29.4799 37.3247C28.9184 36.1431 27.6162 35.4971 27.1419 34.2611C26.6875 33.0704 26.6737 31.7088 27.1021 30.5105C27.6178 29.0824 29.1862 28.3577 29.6727 26.9128C29.9589 25.9869 29.9589 24.9582 29.6681 24.0338C29.18 22.5889 27.5856 21.8794 27.0945 20.4345C26.64 19.1198 26.6263 17.5146 27.526 16.3739C27.9682 15.802 28.5404 15.3421 28.9735 14.7626C29.8487 13.696 30.0216 12.2149 29.7814 10.9002C29.3468 9.03021 27.2827 7.73667 25.3853 8.18147C24.3035 8.38571 23.3656 9.12704 22.8315 10.0681C22.0665 11.4902 22.3052 13.404 23.4635 14.5569C24.0954 15.2135 24.758 15.8761 25.1466 16.7082C25.5735 17.5993 25.4419 18.6145 25.4251 19.5692C25.2966 20.9293 24.2316 21.8869 23.3656 22.8401C22.3144 23.9445 22.1598 25.6511 22.6678 27.0354C23.1835 28.3077 24.4933 29.0279 25.0762 30.2609C25.5506 31.1066 25.4481 32.1006 25.4389 33.028C25.4282 33.8511 25.0257 34.6136 24.5177 35.2444C23.9439 35.9964 23.1284 36.5713 22.7367 37.4533C22.2577 38.5532 22.2792 39.8482 22.7596 40.9436C23.3151 42.0752 24.4825 42.7606 25.0518 43.8847C25.5781 44.853 25.4618 45.9937 25.4113 47.0512C25.243 48.3871 24.175 49.3176 23.3227 50.2662C22.0221 51.6868 22.0818 54.1392 23.5033 55.463C24.2653 56.2285 25.3761 56.6446 26.461 56.5493C27.5474 56.457 28.5542 55.8518 29.2045 55.0001C29.9527 53.9652 30.0507 52.5749 29.6559 51.3902C29.2734 50.2843 28.2359 49.6141 27.5719 48.6927Z" fill="#24BEE1"></path></g><path fill-rule="evenodd" clip-rule="evenodd" d="M21.6438 43.5627C20.9644 42.7684 20.08 42.1012 19.6867 41.0997C19.2032 39.8651 19.2032 38.4354 19.7036 37.2069C20.054 36.3355 20.8114 35.7394 21.4127 35.051C21.9406 34.4504 22.3384 33.7015 22.3706 32.8936C22.4073 32.0978 22.4195 31.2597 22.0401 30.5335C21.5259 29.4064 20.3355 28.7785 19.8061 27.6605C19.2353 26.4955 19.1971 25.1082 19.5658 23.8767C19.8382 22.9735 20.5023 22.2669 21.1694 21.624C21.9452 20.8735 22.4593 19.8296 22.3859 18.7403C22.4746 17.4937 21.8335 16.238 20.7563 15.5784C19.9438 14.9747 18.8803 14.8552 17.9026 15.0216C16.8912 15.2501 15.9471 15.8719 15.4376 16.7796C14.8699 17.6919 14.8775 18.8326 15.0826 19.8508C15.459 21.3547 17.0274 22.093 17.6364 23.4697C18.204 24.795 18.1857 26.3654 17.5476 27.6635C16.9662 28.8269 15.7191 29.5138 15.2233 30.7317C14.9097 31.4095 14.9602 32.1735 14.9801 32.8997C15.0061 33.6032 15.3182 34.2689 15.7543 34.8165C16.3771 35.5745 17.1819 36.2024 17.6088 37.1041C18.2209 38.4097 18.1826 39.9831 17.5782 41.2842C16.9662 42.6186 15.4238 43.3418 15.078 44.823C14.8852 45.8109 14.8714 46.9123 15.4008 47.8079C16.0634 48.9366 17.3303 49.7399 18.6707 49.7097C20.3891 49.7566 22.0156 48.4403 22.3338 46.7746C22.4823 45.6732 22.3782 44.4568 21.6438 43.5627ZM34.4801 40.7703C34.1588 39.6175 34.1603 38.3406 34.6148 37.2195C35.1213 36.0107 36.3668 35.3284 36.9421 34.1649C37.4899 33.0681 37.5083 31.7261 37.0018 30.6126C36.4433 29.3463 35.0677 28.6428 34.5781 27.3372C34.1542 26.1919 34.145 24.8878 34.5383 23.7304C34.9086 22.632 35.923 21.9588 36.5841 21.0495C37.3705 19.998 37.5939 18.5532 37.1028 17.3292C36.4984 15.6393 34.5383 14.6136 32.7786 15.0357C31.4428 15.3337 30.2952 16.4079 29.98 17.7317C29.7735 18.5063 29.824 19.3414 30.0948 20.0933C30.6548 21.6168 32.3471 22.4081 32.7771 24.0027C33.0587 25.1298 33.0602 26.378 32.5996 27.4612C32.0411 28.6927 30.7497 29.4083 30.182 30.6323C29.7796 31.6036 29.749 32.7262 30.0718 33.7247C30.5921 35.2285 32.24 35.9986 32.7236 37.5236C33.0602 38.6008 33.0541 39.8036 32.7052 40.8777C32.2309 42.3059 30.7068 43.0321 30.1545 44.4149C29.7061 45.5193 29.7459 46.8356 30.361 47.8719C30.8338 48.6284 31.5622 49.2411 32.4206 49.524C33.5085 49.8856 34.7724 49.7298 35.7134 49.0656C36.6361 48.465 37.2084 47.4256 37.3476 46.356C37.4516 45.2289 37.0768 44.0594 36.2903 43.2303C35.6002 42.4814 34.777 41.7809 34.4801 40.7703Z" fill="#24BEE1"></path><path fill-rule="evenodd" clip-rule="evenodd" d="M41.7846 33.1704C41.7708 32.2233 41.6545 31.2187 42.0998 30.3412C42.672 29.025 44.1012 28.3064 44.5923 26.9432C45.108 25.5287 44.7959 23.7964 43.6238 22.7873C42.7302 21.8931 41.3531 21.6571 40.1427 21.9053C39.1176 22.1715 38.2071 22.8659 37.7282 23.81C37.2799 24.624 37.2768 25.5937 37.4191 26.4894C37.6563 27.6649 38.6096 28.4743 39.3823 29.3231C40.5436 30.5954 40.6615 32.5168 40.1489 34.0887C39.6852 35.4473 38.2637 36.1463 37.6884 37.4338C37.3135 38.1479 37.2967 38.977 37.3763 39.7591C37.6089 41.1162 38.6447 42.3341 39.9959 42.7108C41.0455 43.0074 42.236 42.8606 43.1479 42.2554C43.9604 41.7093 44.5786 40.8545 44.7469 39.8892C45.0361 38.6244 44.6077 37.2447 43.685 36.3278C42.8205 35.4488 41.8718 34.4624 41.7846 33.1704Z" fill="#24BEE1"></path><path fill-rule="evenodd" clip-rule="evenodd" d="M52.1922 32.2662C51.75 30.251 49.3844 28.8969 47.4029 29.5989C45.9309 30.0498 44.7619 31.4765 44.8369 33.0302C44.6869 34.82 46.136 36.4766 47.8941 36.7686C49.4594 37.0455 51.1777 36.2255 51.8739 34.7988C52.3085 34.0318 52.3284 33.1149 52.1922 32.2662ZM14.6145 37.4684C14.2013 36.435 13.1777 35.8435 12.5916 34.9267C11.7133 33.5968 11.6506 31.8282 12.2336 30.3743C12.763 29.0581 14.1983 28.3667 14.6818 27.0308C14.9496 26.2668 15.0735 25.4241 14.8409 24.6343C14.5548 23.2515 13.3521 22.1395 11.9689 21.8627C11.2681 21.79 10.5336 21.7673 9.87259 22.0488C8.33941 22.545 7.3387 24.1835 7.47948 25.7539C7.43969 27.0746 8.33482 28.1534 9.23606 29.0248C9.78385 29.521 10.0991 30.1897 10.4158 30.8403C10.581 31.9492 10.656 33.1081 10.2582 34.1808C9.68898 35.556 8.22618 36.3019 7.69981 37.6953C7.42745 38.3428 7.45805 39.0645 7.50549 39.7498C7.69981 41.0888 8.73418 42.234 10.0118 42.6803C10.6606 42.8589 11.3507 42.9239 12.0163 42.7832C13.4087 42.4942 14.6053 41.3444 14.8623 39.948C15.0781 39.1235 14.9266 38.249 14.6145 37.4684Z" fill="#24BEE1"></path><path fill-rule="evenodd" clip-rule="evenodd" d="M7.48891 33.027C7.50269 31.5292 6.42548 30.1479 5.02541 29.6396C4.23127 29.343 3.36675 29.3687 2.55885 29.5911C1.79225 29.924 1.03484 30.3884 0.604876 31.1192C0.098404 31.9785 -0.181609 33.033 0.132067 34.0073C0.389128 35.1859 1.29496 36.1466 2.41961 36.5747C3.85333 37.1663 5.59921 36.664 6.59532 35.5172C7.18595 34.8334 7.544 33.9332 7.48891 33.027Z" fill="#24BEE1"></path><path fill-rule="evenodd" clip-rule="evenodd" d="M79.2248 33.8248C80.0663 33.8248 80.8314 33.666 81.52 33.3467C82.207 33.0275 82.7884 32.5963 83.2658 32.0562C83.7432 31.5161 84.1151 30.8913 84.3813 30.1832C84.6475 29.4752 84.7822 28.7203 84.7822 27.9154C84.7822 27.1105 84.6475 26.3541 84.3813 25.646C84.1151 24.938 83.7432 24.3147 83.2658 23.7715C82.7884 23.2314 82.207 22.8017 81.52 22.4825C80.8314 22.1633 80.0663 22.0044 79.2248 22.0044H73.499V33.8248H79.2248ZM68.6577 17.7169H79.2248C80.7962 17.7169 82.2208 17.9861 83.4969 18.5293C84.7745 19.0694 85.8686 19.8122 86.7805 20.7548C87.6925 21.6988 88.3948 22.7881 88.886 24.0227C89.3772 25.2572 89.622 26.5553 89.622 27.9154C89.622 29.3027 89.3772 30.6069 88.886 31.8278C88.3948 33.0487 87.6925 34.1304 86.7805 35.073C85.8686 36.017 84.7745 36.7584 83.4969 37.3015C82.2208 37.8416 80.7962 38.1124 79.2248 38.1124H73.499V46.8525H68.6577V17.7169ZM101.116 43.3159C101.985 43.3159 102.779 43.1495 103.495 42.8167C104.21 42.4823 104.82 42.039 105.325 41.4838C105.832 40.9286 106.223 40.2765 106.505 39.5276C106.785 38.7787 106.926 37.9875 106.926 37.1554C106.926 36.3233 106.785 35.5305 106.505 34.7816C106.223 34.0327 105.832 33.3822 105.325 32.8254C104.82 32.2717 104.21 31.8269 103.495 31.4955C102.779 31.1612 101.985 30.9933 101.116 30.9933C100.245 30.9933 99.4587 31.1612 98.7579 31.4955C98.0556 31.8269 97.4527 32.2717 96.9478 32.8254C96.4428 33.3822 96.0572 34.0327 95.791 34.7816C95.5232 35.5305 95.3901 36.3233 95.3901 37.1554C95.3901 37.9875 95.5232 38.7787 95.791 39.5276C96.0572 40.2765 96.4428 40.9286 96.9478 41.4838C97.4527 42.039 98.0556 42.4823 98.7579 42.8167C99.4587 43.1495 100.245 43.3159 101.116 43.3159ZM111.513 27.4576V46.8531H106.926V44.2297C106.308 45.2025 105.431 45.965 104.294 46.5203C103.157 47.074 102.014 47.3524 100.863 47.3524C99.3761 47.3524 98.0143 47.0816 96.781 46.5415C95.5446 45.9998 94.4858 45.257 93.6014 44.3145C92.717 43.3719 92.0299 42.2887 91.5388 41.0677C91.0476 39.8468 90.8012 38.5427 90.8012 37.1554C90.8012 35.7952 91.0476 34.4987 91.5388 33.2626C92.0299 32.0281 92.717 30.9388 93.6014 29.9947C94.4858 29.0522 95.5446 28.3094 96.781 27.7692C98.0143 27.2276 99.3761 26.9568 100.863 26.9568C102.014 26.9568 103.157 27.2352 104.294 27.7889C105.431 28.3442 106.308 29.1082 106.926 30.0795V27.4576H111.513ZM127.216 43.3159C128.085 43.3159 128.872 43.1495 129.574 42.8167C130.275 42.4823 130.879 42.039 131.384 41.4838C131.889 40.9286 132.275 40.2765 132.541 39.5276C132.807 38.7787 132.942 37.9875 132.942 37.1554C132.942 36.3233 132.807 35.5305 132.541 34.7816C132.275 34.0327 131.889 33.3822 131.384 32.8254C130.879 32.2717 130.275 31.8269 129.574 31.4955C128.872 31.1612 128.085 30.9933 127.216 30.9933C126.318 30.9933 125.512 31.1612 124.795 31.4955C124.079 31.8269 123.469 32.2717 122.964 32.8254C122.459 33.3822 122.073 34.0327 121.806 34.7816C121.539 35.5305 121.406 36.3233 121.406 37.1554C121.406 37.9875 121.539 38.7787 121.806 39.5276C122.073 40.2765 122.459 40.9286 122.964 41.4838C123.469 42.039 124.079 42.4823 124.795 42.8167C125.512 43.1495 126.318 43.3159 127.216 43.3159ZM121.406 46.8531H116.819V17.7159H121.406V30.0795C122.023 29.1082 122.901 28.3442 124.038 27.7889C125.175 27.2352 126.318 26.9568 127.469 26.9568C128.956 26.9568 130.316 27.2276 131.551 27.7692C132.787 28.3094 133.846 29.0522 134.731 29.9947C135.615 30.9388 136.302 32.0281 136.793 33.2626C137.284 34.4987 137.529 35.7952 137.529 37.1554C137.529 38.5427 137.284 39.8468 136.793 41.0677C136.302 42.2887 135.615 43.3719 134.731 44.3145C133.846 45.257 132.787 45.9998 131.551 46.5415C130.316 47.0816 128.956 47.3524 127.469 47.3524C126.318 47.3524 125.175 47.074 124.038 46.5203C122.901 45.965 122.023 45.2025 121.406 44.2297V46.8531ZM151.127 43.3159C151.996 43.3159 152.79 43.1495 153.505 42.8167C154.221 42.4823 154.832 42.039 155.337 41.4838C155.843 40.9286 156.235 40.2765 156.515 39.5276C156.796 38.7787 156.937 37.9875 156.937 37.1554C156.937 36.3233 156.796 35.5305 156.515 34.7816C156.235 34.0327 155.843 33.3822 155.337 32.8254C154.832 32.2717 154.221 31.8269 153.505 31.4955C152.79 31.1612 151.996 30.9933 151.127 30.9933C150.257 30.9933 149.47 31.1612 148.769 31.4955C148.067 31.8269 147.464 32.2717 146.959 32.8254C146.454 33.3822 146.069 34.0327 145.802 34.7816C145.535 35.5305 145.402 36.3233 145.402 37.1554C145.402 37.9875 145.535 38.7787 145.802 39.5276C146.069 40.2765 146.454 40.9286 146.959 41.4838C147.464 42.039 148.067 42.4823 148.769 42.8167C149.47 43.1495 150.257 43.3159 151.127 43.3159ZM161.524 27.4576V46.8531H156.937V44.2297C156.319 45.2025 155.442 45.965 154.305 46.5203C153.168 47.074 152.025 47.3524 150.875 47.3524C149.386 47.3524 148.026 47.0816 146.791 46.5415C145.556 45.9998 144.497 45.257 143.613 44.3145C142.728 43.3719 142.041 42.2887 141.55 41.0677C141.059 39.8468 140.813 38.5427 140.813 37.1554C140.813 35.7952 141.059 34.4987 141.55 33.2626C142.041 32.0281 142.728 30.9388 143.613 29.9947C144.497 29.0522 145.556 28.3094 146.791 27.7692C148.026 27.2276 149.386 26.9568 150.875 26.9568C152.025 26.9568 153.168 27.2352 154.305 27.7889C155.442 28.3442 156.319 29.1082 156.937 30.0795V27.4576H161.524ZM184.636 27.457V46.8525H180.047V44.1474C179.431 45.2019 178.575 46.0007 177.48 46.5409C176.386 47.0825 175.108 47.3518 173.648 47.3518C172.218 47.3518 171.018 47.1158 170.05 46.6452C169.081 46.1732 168.316 45.5348 167.756 44.7299C167.278 44.0082 166.948 43.2049 166.766 42.3153C166.584 41.4287 166.494 40.3182 166.494 38.9869V27.457H171.081V37.4876C171.081 38.3212 171.151 39.0973 171.292 39.819C171.433 40.5406 171.664 41.1579 171.987 41.6723C172.308 42.1852 172.744 42.5937 173.29 42.8993C173.838 43.2049 174.519 43.3577 175.333 43.3577C176.932 43.3577 178.118 42.7949 178.891 41.6723C179.662 40.5467 180.047 39.1518 180.047 37.4876V27.457H184.636Z" fill="#414748"></path></svg>